<svg xmlns:xlink="http://www.w3.org/1999/xlink" xmlns="http://www.w3.org/2000/svg" id="b" viewBox="0 0 434.05 490.25" width="434.05"  height="490.25" ><defs><style>.d{fill:#ff3d2e;}.e{fill:#fff;}</style></defs><g id="c"><g><path class="e" d="M338.86,347.45c-24.77,22.27-57.48,34.61-93.37,34.61-79.12,0-137.22-58.1-137.22-137.88S164.53,108.75,245.49,108.75c35.27,0,68.6,11.75,93.99,34.01l17.26,14.85,76.7-76.67-19.2-17.32C369.12,22.87,309.2,0,245.47,0,103.27,0,0,102.61,0,243.59s105.74,246.66,245.47,246.66c64.93,0,125.48-22.87,170.04-64.27l18.54-17.32-77.9-76.62-17.29,15.41Z"/><path class="d" d="M241.74,163.19c45.42,0,82.25,36.82,82.25,82.25s-36.82,82.25-82.25,82.25-82.25-36.82-82.25-82.25,36.82-82.25,82.25-82.25"/></g></g></svg>