<?xml version="1.0" encoding="UTF-8"?>
<svg width="600px" height="412px" viewBox="0 0 600 412" version="1.1" xmlns="http://www.w3.org/2000/svg" xmlns:xlink="http://www.w3.org/1999/xlink">
    <title>logo/Cozy_logo_canvas</title>
    <g id="logo/Cozy_logo_canvas" stroke="none" stroke-width="1" fill="none" fill-rule="evenodd">
        <path d="M293.519713,158.476778 C274.815555,158.476778 257.729147,141.149725 257.729147,130.290294 C257.729147,119.436582 263.502741,115.313516 268.813304,115.313516 C298.573037,115.273514 293.519713,158.476778 293.519713,158.476778 M254.007751,217.851959 C222.944672,217.851959 238.533376,152.014874 248.691471,152.014874 C248.691471,152.014874 263.342681,174.196933 290.038407,174.196933 C290.026975,174.185496 285.065114,217.851959 254.007751,217.851959 M575.002428,0 C567.033725,0 560.299771,2.47039181 555.326477,5.1638051 C550.416064,7.82862589 549.187032,14.3419969 552.874129,18.5279386 C557.424407,23.7031807 562.523462,31.606147 562.523462,41.0988563 C562.523462,109.011757 526.035491,142.968207 514.019556,142.968207 C493.126005,142.968207 518.644148,66.0658254 518.644148,48.9389192 C518.644148,45.23905 516.797741,20.7524349 494.166396,20.7524349 C483.12797,20.7524349 475.605148,24.0520091 470.797631,27.4316424 C466.624637,30.3595141 465.858636,36.1866652 469.105568,40.1267114 C474.250355,46.3770314 481.218682,57.956993 481.218682,74.8437222 L477.760242,108.182575 C466.647503,145.896079 438.694162,172.34414 418.412269,172.34414 C410.460716,172.367014 402.54346,171.360558 394.860579,169.341927 C394.860579,169.341927 453.048117,128.917854 453.048117,82.2434606 C453.048117,68.9822601 447.571777,59.9756233 442.907171,54.7203222 C439.803149,51.226319 434.475437,50.8431795 430.891235,53.8396733 C419.475525,63.3895676 392.339633,83.6502115 367.621791,83.6502115 C354.085286,83.6502115 347.076943,78.3605994 343.498458,73.5227488 C340.234377,69.1023486 333.740513,68.7020537 330.081998,72.7964993 C325.343077,78.0861114 322.650639,85.0798364 322.816415,92.4738563 C322.816415,106.358373 333.797677,114.633042 346.516733,118.487311 C344.041519,139.771566 317.271479,152.077777 317.271479,152.077777 C317.271479,152.077777 317.860271,92.4738563 267.355614,92.4738563 C239.636647,92.4738563 230.63327,125.04643 230.63327,125.04643 C230.63327,125.04643 198.152516,143.031111 198.078203,190.031459 C177.699131,242.956172 136.900972,285.907822 102.693857,285.907822 C78.9135093,285.907822 67.3606049,259.396858 67.3606049,218.623956 C67.4063363,165.504814 117.705201,45.1990205 170.725087,45.1990205 C182.95253,45.1990205 189.6922,56.0813251 189.6922,75.7815561 C189.6922,100.468319 167.158035,108.571433 153.570081,111.219098 C147.80792,112.345642 144.789645,118.750362 147.624994,123.885574 C151.437853,130.804959 158.531942,138.313349 171.348178,138.313349 C195.128525,138.313349 219.577695,109.766599 219.577695,79.1897818 C219.577695,48.6072462 197.163574,29.5703612 172.65724,29.5703612 C53.8183829,29.5703612 5.86325413,148.040516 1.10718462,197.431197 C-5.36953023,264.732218 15.9699018,321.814281 80.9771404,321.814281 C163.733893,321.814281 201.250821,216.485238 201.250821,216.485238 L201.113627,213.260004 C209.093763,240.394284 231.062002,246.284339 244.541343,246.284339 C284.03044,246.284339 315.905252,204.01319 315.905252,170.74296 C315.905252,170.74296 358.275429,154.879842 361.122211,120.986295 C362.231198,121.04348 363.328753,121.077791 364.392009,121.077791 C387.486385,121.077791 412.895915,103.521997 412.895915,103.521997 C414.645142,105.763649 415.622652,108.519966 415.674099,111.367779 C415.674099,135.396914 369.25669,169.353364 369.25669,169.353364 C369.25669,169.353364 326.069064,168.192509 326.069064,194.531918 C326.069064,202.377699 327.578201,207.981829 329.464623,211.933312 C331.745479,216.713978 337.804894,218.143603 342.200829,215.175701 C347.534257,211.567328 357.446547,207.427134 374.801627,207.427134 C442.930036,207.427134 474.336101,155.68615 474.336101,141.590049 C474.336101,141.590049 474.799132,169.319053 501.592038,169.319053 C531.900548,169.319053 554.943476,126.367403 554.943476,126.367403 C554.943476,126.367403 512.018806,328.968124 426.775406,328.968124 C390.578973,328.968124 411.529688,227.779274 481.738878,227.779274 C482.036132,227.779274 482.31052,227.784993 482.584909,227.79643 C485.168735,227.882207 487.220934,225.543341 486.614992,223.021483 C484.751436,215.284353 478.22899,206.066131 458.175754,206.066131 L458.095724,206.066131 C385.577097,206.066131 235.206414,363.410647 102.911081,363.410647 C61.7870859,363.410647 34.6283284,349.972173 19.9885519,339.833273 C13.9405693,335.641613 5.67461195,340.502337 6.44061353,347.822017 C8.96727546,372.119922 24.5273971,411 98.2693403,411 C233.039887,411 381.375521,250.441688 398.570542,250.441688 C384.816812,263.211098 376.962438,281.104283 376.865258,299.883835 C376.865258,316.507513 381.775671,347.00999 426.289509,347.00999 C570.217776,347.00999 599,44.392712 599,28.2036398 C599,12.0145676 592.557584,0 575.002428,0" id="Fill-1" fill="#D4AC8E"></path>
    </g>
</svg>